# This file uses centimeters as units for non-parametric coordinates.

mtllib Chalk_01.mtl
g default
v 48.426013 4.164637 14.629827
v 48.426013 7.070643 10.630062
v 48.426013 7.070643 5.686081
v 48.426013 4.164637 1.686319
v 48.426013 -0.537389 0.158546
v 48.426013 -5.239416 1.686319
v 48.426013 -8.145361 5.686082
v 48.426013 -8.145361 10.630060
v 48.426013 -5.239416 14.629822
v 48.426013 -0.537389 16.157595
v -20.467326 4.164637 14.629827
v -21.733943 7.070643 10.630062
v -22.820101 7.070643 5.686081
v -25.514888 4.164637 1.686319
v -25.514888 -0.537389 0.158546
v -25.514888 -5.239416 1.686319
v -22.820101 -8.145361 5.686082
v -21.733943 -8.145361 10.630060
v -21.733943 -5.239416 14.629822
v -18.516642 -0.537389 16.157595
v 48.426013 -0.537389 8.158072
v -21.733943 -0.537389 8.158072
v -30.606936 0.803492 -0.358886
v -27.636683 0.803492 -0.358886
v -29.121810 2.259608 2.313198
v -27.636683 3.715723 -0.358886
v -29.626086 -9.132116 -0.266176
v -28.167929 -5.727697 2.456968
v -33.118941 -5.367162 0.777329
v -28.876479 -2.766271 -0.865952
v -35.434581 -1.775121 1.061471
v -34.831675 -0.136999 1.130513
v -34.742598 -1.026220 -0.649195
v -33.279982 -0.688207 0.659448
v -38.644839 2.751429 0.474044
v -38.068160 3.152064 -0.479706
v -37.743521 1.906763 -0.071162
v -37.060920 3.060389 0.090810
v -34.473479 5.269678 -0.673214
v -33.226596 3.373621 -1.638390
v -32.796893 3.868189 1.095498
v -31.140647 4.468897 -1.095252
vt 0.626409 0.064408
vt 0.548284 0.007647
vt 0.451716 0.007647
vt 0.373591 0.064409
vt 0.343750 0.156250
vt 0.373591 0.248091
vt 0.451716 0.304853
vt 0.548284 0.304853
vt 0.626409 0.248091
vt 0.656250 0.156250
vt 0.387500 0.312500
vt 0.412500 0.312500
vt 0.437500 0.312500
vt 0.462500 0.312500
vt 0.487500 0.312500
vt 0.512500 0.312500
vt 0.537500 0.312500
vt 0.562500 0.312500
vt 0.587500 0.312500
vt 0.612500 0.312500
vt 0.387500 0.688440
vt 0.412500 0.688440
vt 0.437500 0.688440
vt 0.462500 0.688440
vt 0.487500 0.688440
vt 0.512500 0.688440
vt 0.537500 0.688440
vt 0.562500 0.688440
vt 0.587500 0.688440
vt 0.612500 0.688440
vt 0.626409 0.751908
vt 0.548284 0.695147
vt 0.451716 0.695147
vt 0.373591 0.751909
vt 0.343750 0.843750
vt 0.373591 0.935591
vt 0.451716 0.992353
vt 0.548284 0.992353
vt 0.626409 0.935591
vt 0.656250 0.843750
vt 0.500000 0.150000
vt 0.500000 0.837500
vt 0.375000 0.000000
vt 0.625000 0.000000
vt 0.500000 0.333333
vt 0.625000 0.750000
vt 0.625000 1.000000
vt 0.375000 1.000000
vt 0.875000 0.000000
vt 0.375000 0.000000
vt 0.625000 0.000000
vt 0.500000 0.333333
vt 0.625000 0.750000
vt 0.625000 1.000000
vt 0.375000 1.000000
vt 0.875000 0.000000
vt 0.375000 0.000000
vt 0.625000 0.000000
vt 0.500000 0.333333
vt 0.625000 0.750000
vt 0.625000 1.000000
vt 0.375000 1.000000
vt 0.875000 0.000000
vt 0.375000 0.000000
vt 0.625000 0.000000
vt 0.500000 0.333333
vt 0.625000 0.750000
vt 0.625000 1.000000
vt 0.375000 1.000000
vt 0.875000 0.000000
vt 0.375000 0.000000
vt 0.625000 0.000000
vt 0.500000 0.333333
vt 0.625000 0.750000
vt 0.625000 1.000000
vt 0.375000 1.000000
vt 0.875000 0.000000
vn 0.000000 0.643696 0.765281
vn 0.000000 0.590855 0.806777
vn 0.000000 0.951896 0.306420
vn 0.000000 0.965693 0.259686
vn 0.000000 0.949723 -0.313091
vn 0.000000 0.926425 -0.376480
vn 0.000000 0.585363 -0.810771
vn 0.000000 0.534711 -0.845035
vn 0.000000 -0.000000 -1.000000
vn 0.000000 -0.000000 -1.000000
vn 0.000000 -0.585367 -0.810768
vn 0.000000 -0.534715 -0.845033
vn 0.000000 -0.949726 -0.313082
vn 0.000000 -0.926428 -0.376472
vn 0.000000 -0.951444 0.307821
vn 0.000000 -0.957674 0.287855
vn 0.000000 -0.590831 0.806795
vn 0.000000 -0.647903 0.761723
vn 0.000000 -0.001509 0.999999
vn 0.000000 -0.017461 0.999848
vn 1.000000 0.000000 0.000000
vn 1.000000 0.000000 0.000000
vn 1.000000 0.000000 0.000000
vn 1.000000 0.000000 0.000000
vn 1.000000 0.000000 0.000000
vn 1.000000 0.000000 0.000000
vn 1.000000 0.000000 0.000000
vn 1.000000 0.000000 0.000000
vn 1.000000 0.000000 0.000000
vn 1.000000 0.000001 0.000000
vn 1.000000 0.000001 0.000000
vn 1.000000 0.000001 0.000000
vn 1.000000 0.000000 0.000000
vn 1.000000 0.000000 0.000000
vn 1.000000 0.000000 0.000000
vn 1.000000 -0.000000 0.000000
vn 1.000000 -0.000000 0.000000
vn 1.000000 -0.000000 0.000000
vn 1.000000 0.000000 0.000000
vn 1.000000 0.000000 0.000000
vn 1.000000 0.000000 0.000000
vn 1.000000 0.000000 0.000000
vn 1.000000 0.000000 0.000000
vn 1.000000 0.000000 0.000000
vn 1.000000 0.000000 0.000000
vn 1.000000 0.000000 0.000000
vn 1.000000 0.000000 0.000000
vn 1.000000 -0.000001 0.000000
vn 1.000000 -0.000001 0.000000
vn 1.000000 -0.000001 0.000000
vn -0.965580 -0.080377 0.247376
vn -0.965580 -0.080377 0.247376
vn -0.965580 -0.080377 0.247376
vn -0.974342 -0.069551 0.214057
vn -0.974342 -0.069551 0.214057
vn -0.974342 -0.069551 0.214057
vn -0.845330 0.052074 0.531702
vn -0.845329 0.052074 0.531702
vn -0.845329 0.052074 0.531702
vn -0.895513 -0.137525 0.423254
vn -0.895513 -0.137525 0.423254
vn -0.895513 -0.137525 0.423254
vn -0.895508 0.137524 0.423264
vn -0.895508 0.137524 0.423264
vn -0.895508 0.137524 0.423264
vn -0.845334 -0.052074 0.531694
vn -0.845334 -0.052074 0.531694
vn -0.845334 -0.052074 0.531694
vn -0.974342 0.069551 0.214055
vn -0.974342 0.069551 0.214055
vn -0.974342 0.069551 0.214056
vn -1.000000 0.000000 0.000000
vn -1.000000 0.000000 0.000000
vn -1.000000 0.000000 0.000000
vn -0.825296 0.456851 0.331925
vn -0.825296 0.456851 0.331925
vn -0.825296 0.456851 0.331925
vn -0.897119 -0.254945 0.360806
vn -0.897119 -0.254945 0.360806
vn -0.897119 -0.254945 0.360806
vn 0.000000 -0.878079 0.478515
vn 0.000000 -0.878079 0.478515
vn 0.000000 -0.878079 0.478515
vn 0.000000 0.000000 -1.000000
vn 0.000000 0.000000 -1.000000
vn 0.000000 0.000000 -1.000000
vn 0.874061 0.000000 0.485816
vn 0.874061 0.000000 0.485816
vn 0.874061 0.000000 0.485816
vn -0.700098 0.714047 0.000000
vn -0.700098 0.714047 0.000000
vn -0.700098 0.714047 0.000000
vn -0.309471 -0.509619 0.802818
vn -0.309471 -0.509619 0.802818
vn -0.309471 -0.509619 0.802818
vn 0.935237 -0.140735 -0.324848
vn 0.935237 -0.140735 -0.324848
vn 0.935237 -0.140735 -0.324848
vn -0.177078 0.715690 0.675596
vn -0.177078 0.715690 0.675596
vn -0.177078 0.715690 0.675596
vn -0.334332 -0.049307 -0.941165
vn -0.334332 -0.049307 -0.941165
vn -0.334332 -0.049307 -0.941165
vn -0.912835 0.345166 -0.218157
vn -0.912835 0.345166 -0.218157
vn -0.912835 0.345166 -0.218157
vn 0.245182 -0.130725 0.960623
vn 0.245182 -0.130725 0.960623
vn 0.245182 -0.130725 0.960623
vn 0.182539 0.883156 -0.432106
vn 0.182539 0.883156 -0.432106
vn 0.182539 0.883156 -0.432106
vn 0.405296 -0.886295 -0.224089
vn 0.405296 -0.886295 -0.224089
vn 0.405296 -0.886295 -0.224089
vn -0.712568 -0.379389 -0.590179
vn -0.712568 -0.379389 -0.590179
vn -0.712568 -0.379389 -0.590179
vn -0.102623 0.937755 0.331790
vn -0.102623 0.937755 0.331790
vn -0.102623 0.937755 0.331790
vn 0.475447 -0.159857 -0.865099
vn 0.475446 -0.159857 -0.865099
vn 0.475447 -0.159857 -0.865099
vn 0.278473 -0.293185 0.914601
vn 0.278473 -0.293185 0.914601
vn 0.278473 -0.293185 0.914601
vn -0.755380 -0.613707 0.229707
vn -0.755380 -0.613707 0.229707
vn -0.755380 -0.613707 0.229707
vn -0.004581 0.451281 -0.892370
vn -0.004581 0.451281 -0.892370
vn -0.004581 0.451281 -0.892370
vn 0.444175 -0.891268 0.091384
vn 0.444175 -0.891268 0.091384
vn 0.444175 -0.891267 0.091384
vn 0.262061 0.861746 0.434417
vn 0.262061 0.861746 0.434417
vn 0.262061 0.861746 0.434417
s 1
g pCylinder8
usemtl blinn6SG
f 11/21/1 1/11/2 2/12/3 12/22/4
f 12/22/4 2/12/3 3/13/5 13/23/6
f 13/23/6 3/13/5 4/14/7 14/24/8
f 14/24/8 4/14/7 5/15/9 15/25/10
f 15/25/10 5/15/9 6/16/11 16/26/12
f 16/26/12 6/16/11 7/17/13 17/27/14
f 17/27/14 7/17/13 8/18/15 18/28/16
f 18/28/16 8/18/15 9/19/17 19/29/18
f 19/29/18 9/19/17 10/20/19 20/30/20
f 20/30/20 10/20/19 1/11/2 11/21/1
s off
f 2/2/21 1/1/22 21/41/23
f 3/3/24 2/2/25 21/41/26
f 4/4/27 3/3/28 21/41/29
f 5/5/30 4/4/31 21/41/32
f 6/6/33 5/5/34 21/41/35
f 7/7/36 6/6/37 21/41/38
f 8/8/39 7/7/40 21/41/41
f 9/9/42 8/8/43 21/41/44
f 10/10/45 9/9/46 21/41/47
f 1/1/48 10/10/49 21/41/50
f 22/42/51 11/39/52 12/38/53
f 22/42/54 12/38/55 13/37/56
f 22/42/57 13/37/58 14/36/59
f 22/42/60 14/36/61 15/35/62
f 22/42/63 15/35/64 16/34/65
f 22/42/66 16/34/67 17/33/68
f 22/42/69 17/33/70 18/32/71
f 22/42/72 18/32/73 19/31/74
f 22/42/75 19/31/76 20/40/77
f 22/42/78 20/40/79 11/39/80
f 23/43/81 24/44/82 25/45/83
f 26/46/84 24/47/85 23/48/86
f 24/44/87 26/49/88 25/45/89
f 26/46/90 23/43/91 25/45/92
f 27/50/93 28/51/94 29/52/95
f 30/53/96 28/54/97 27/55/98
f 28/51/99 30/56/100 29/52/101
f 30/53/102 27/50/103 29/52/104
f 31/57/105 32/58/106 33/59/107
f 34/60/108 32/61/109 31/62/110
f 32/58/111 34/63/112 33/59/113
f 34/60/114 31/57/115 33/59/116
f 35/64/117 36/65/118 37/66/119
f 38/67/120 36/68/121 35/69/122
f 36/65/123 38/70/124 37/66/125
f 38/67/126 35/64/127 37/66/128
f 39/71/129 40/72/130 41/73/131
f 42/74/132 40/75/133 39/76/134
f 40/72/135 42/77/136 41/73/137
f 42/74/138 39/71/139 41/73/140
